<svg width="128" height="128" viewBox="0 0 128 128" xmlns="http://www.w3.org/2000/svg">
  <path
    fill="currentColor"
    d="M64 10c-14.8 0-28.1 7.2-36.3 18.3C15.8 32.7 8 45.3 8 60c0 22.1 17.9 40 40 40h2.2c5.3 10.7 13.2 18 27.8 18 23.2 0 42-18.8 42-42 0-14.9-7.8-27.9-19.6-35.3C93.2 22.2 79.8 10 64 10Zm-8 22c12.2 0 22 9.8 22 22v4h4c12.2 0 22 9.8 22 22 0 14.3-11.7 26-26 26-10 0-14.8-4.2-19.1-14H48c-17.6 0-32-14.4-32-32s14.4-32 32-32h8Zm0 16h-8c-8.8 0-16 7.2-16 16s7.2 16 16 16h12.5l1.8 4.1c1.7 3.8 3.4 6.3 5.2 8.1-1.2-2.9-1.9-6.1-1.9-9.4 0-12.2 9.8-22 22-22h.2C87 54 78 48 68 48h-4v-4c0-3.5-2.9-6-8-6Z"
  />
</svg>
